<svg width="884" height="238" viewBox="0 0 884 238" fill="none" xmlns="http://www.w3.org/2000/svg">
<path d="M18.6 112.3C6.9 123.5 0 139.2 0 157.1V201.9H63.4C80.7 201.9 96.7 194.5 108.2 183.3H18.6V112.3Z" fill="black"/>
<path d="M32.0998 45.4001V17.6001C22.6998 27.3001 16.2998 40.5001 16.2998 55.5001H21.8998C27.4998 55.5001 32.0998 51.0001 32.0998 45.4001Z" fill="black"/>
<path d="M108.2 93.7001C111.2 90.7001 113.8 87.4001 116 83.8001C121.1 75.5001 124 65.8001 124 55.5001V17.6001C121 20.6001 118.4 23.9001 116.2 27.5001C114 23.9001 111.3 20.6001 108.2 17.6001V93.7001H63.3996C45.7996 93.7001 30.0996 100.6 18.5996 112.3H63.3996C80.6996 112.3 96.6996 104.9 108.2 93.7001Z" fill="black"/>
<path d="M70.2996 1.80005C55.4996 1.80005 41.9996 7.60005 32.0996 17.6H108.2C98.4996 7.60005 85.2996 1.80005 70.2996 1.80005Z" fill="black"/>
<path d="M186.8 93.7H147.1V112.3H186.8V93.7Z" fill="black"/>
<path d="M154 201.9C172.1 201.9 188.1 194.5 199.8 183.3H108.2C119.9 194.5 136.2 201.9 154 201.9Z" fill="black"/>
<path d="M199.8 183.3C211.5 171.8 218.4 155.8 218.4 138.5C218.4 120.7 211.5 104.9 199.8 93.7V183.3Z" fill="black"/>
<path d="M124 17.6H199.9C190.5 7.70005 176.7 1.80005 162 1.80005C147.1 1.80005 133.6 7.60005 124 17.6Z" fill="black"/>
<path d="M199.8 17.6001V93.7001C209.5 83.8001 215.6 70.3001 215.6 55.5001C215.6 40.5001 209.5 27.2001 199.8 17.6001Z" fill="black"/>
<path d="M332.7 183.3C344.4 171.6 351.3 155.6 351.3 137.7C351.3 120.4 344.4 104.4 332.7 92.6001V183.3Z" fill="black"/>
<path d="M287.6 74.1001C269.8 74.1001 254 81.2001 242 92.7001H332.6C321.2 81.2001 305.2 74.1001 287.6 74.1001Z" fill="black"/>
<path d="M287.6 201.9C305.2 201.9 321.2 194.5 332.7 183.3H242.1C254 194.5 269.8 201.9 287.6 201.9Z" fill="black"/>
<path d="M223.5 137.7V236.2H231.9C237.5 236.2 242 231.7 242 226.1V183.3V92.7C230.6 104.4 223.5 120.4 223.5 137.7Z" fill="black"/>
<path d="M465.5 92.7V183.3C477 171.6 484.1 155.6 484.1 137.7C484.1 120.4 477 104.4 465.5 92.7Z" fill="black"/>
<path d="M420.5 74.1001C402.7 74.1001 386.9 81.2001 374.9 92.7001H465.5C454.1 81.2001 438 74.1001 420.5 74.1001Z" fill="black"/>
<path d="M356.3 137.7C356.3 155.5 363.7 171.6 374.9 183.3V92.7C363.7 104.4 356.3 120.4 356.3 137.7Z" fill="black"/>
<path d="M420.5 201.9C438.1 201.9 454.1 194.5 465.6 183.3H375C386.9 194.5 402.7 201.9 420.5 201.9Z" fill="black"/>
<path d="M556.1 92.7001H646.7C635 81.2001 619.2 74.1001 601.6 74.1001C583.9 74.1001 567.8 81.2001 556.1 92.7001Z" fill="black"/>
<path d="M646.8 201.9H655.2C660.8 201.9 665.3 197.4 665.3 191.8V137.8C665.3 120.5 658.4 104.5 646.7 92.7V201.9H646.8Z" fill="black"/>
<path d="M537.6 201.9H546C551.6 201.9 556.1 197.4 556.1 191.8V92.7C544.6 104.4 537.5 120.4 537.5 137.8V201.9H537.6Z" fill="black"/>
<path d="M697.1 73.7C691.5 73.7 686.2 74.2 680.8 75.5C669.9 78.3 659.7 84.4 651.8 92.3H701.2V201.5H709.6C715.2 201.5 719.7 197 719.7 191.4V92.3H723.5C729.1 92.3 734.7 91.5 739.8 90.5C751 87.4 760.7 81.6 768.6 73.7H697.1Z" fill="black"/>
<path d="M775.3 75.1001C787 86.3001 802.8 93.7001 820.1 93.7001H865.2C853.5 82.0001 837.7 75.1001 820.1 75.1001H775.3Z" fill="black"/>
<path d="M865.2 93.7V183.3C876.7 171.8 884 155.8 884 138.5C884 120.7 876.6 104.9 865.2 93.7Z" fill="black"/>
<path d="M853 20.4C858.6 20.4 863.1 15.9 863.1 10.3V1.80005H756.7V29.8C756.7 47.6 763.8 63.4 775.3 75.1V20.4H853Z" fill="black"/>
<path d="M820.1 201.9C837.7 201.9 853.4 194.5 865.2 183.3H775.3C787 194.5 802.8 201.9 820.1 201.9Z" fill="black"/>
<path d="M765.2 138.5H756.8C756.8 155.8 763.9 171.8 775.4 183.3V148.6C775.3 143 770.8 138.5 765.2 138.5Z" fill="black"/>
<path d="M527.6 92.7001C523.6 92.7001 519.9 95.1001 518.3 98.8001L473.6 201.7H487C491 201.7 494.7 199.3 496.3 195.6L541.4 92.6001H527.6V92.7001Z" fill="black"/>
<path d="M553.9 64.2001L559.7 50.9001H547.1C542.2 50.9001 537.8 53.8001 535.9 58.3001L530.1 71.5001H542.6C547.6 71.5001 552 68.7001 553.9 64.2001Z" fill="black"/>
</svg>
