<svg id="Layer_3" data-name="Layer 3" xmlns="http://www.w3.org/2000/svg" viewBox="0 0 790.16 163.72"><defs><style>.cls-1{fill:#ff5e38;}</style></defs><path class="cls-1" d="M787.91,78.84a13.53,13.53,0,0,0-4.61-.79c-8.44,0-13.5,7.09-13.5,16.54v27.56H755.63V66.36H769.8v8.88c3.15-6.41,8.33-10.46,15.53-10.46a16.15,16.15,0,0,1,4.83.68Zm-82.68,8.44h29.93c-1.35-7.2-6.64-11.7-14.63-11.7-7.54,0-13.27,5.17-15.3,11.7Zm0,10.35c.9,8.55,7,14,15.3,14,7.76,0,12.26-3.94,15.41-10.24l10.58,6.07c-5.29,10.91-13.61,16.31-26.21,16.31-15.53,0-28.69-11.81-28.69-29.47S704.78,64.78,721,64.78c16,0,27.22,11.59,27.22,27.9v4.95Zm-46.68-14.4,17-16.87h17.55L672.73,86.27l23,35.88H679.47l-16.64-26.1-4.28,4.16v21.94H644.38V43.41h14.17Zm-20,24.41c-5.29,10.57-14.4,16.08-26.1,16.08-16.54,0-29.36-11.69-29.36-29.47s13.5-29.47,29.36-29.47C624.8,64.78,634,70.4,638,80l-11.59,7.65c-3.26-7.09-8.21-9.57-14.06-9.57-8.33,0-14.85,6.3-14.85,16.2s6.3,16.2,14.85,16.2c7.42,0,11.58-3.71,14.73-10.24ZM535.94,87.28h29.92c-1.35-7.2-6.64-11.7-14.62-11.7-7.54,0-13.28,5.17-15.3,11.7Zm0,10.35c.9,8.55,7,14,15.3,14,7.76,0,12.26-3.94,15.41-10.24l10.57,6.07c-5.29,10.91-13.61,16.31-26.21,16.31-15.52,0-28.68-11.81-28.68-29.47s13.16-29.47,29.36-29.47c16,0,27.22,11.59,27.22,27.9v4.95Zm-20,24.52H501.74V90c0-7.31-3.82-11.93-11.25-11.93-7.87,0-13.72,6.42-13.72,15.75v28.35H462.6V43.41h14.17V75.13a22.39,22.39,0,0,1,19.35-10.35c12.15,0,19.79,7.76,19.79,19.69Zm-59.28-14.51c-5.28,10.57-14.39,16.08-26.09,16.08-16.54,0-29.36-11.69-29.36-29.47s13.5-29.47,29.36-29.47c12.37,0,21.59,5.62,25.53,15.19l-11.59,7.65c-3.26-7.09-8.21-9.57-14.06-9.57-8.32,0-14.84,6.3-14.84,16.2s6.29,16.2,14.84,16.2c7.43,0,11.59-3.71,14.74-10.24ZM380.7,94.25c0-9.45-6.75-16.2-15.74-16.2s-15.75,6.75-15.75,16.2,6.75,16.2,15.75,16.2,15.74-6.75,15.74-16.2ZM394,122.15H379.8v-7.87c-2.92,5.17-9.11,9.44-17.54,9.44-15.19,0-27.45-10.91-27.45-29.47s13.72-29.47,27.45-29.47c8.32,0,14.39,3.26,17.54,8.44V43.41H394Zm-65.47,0H314.34V90c0-7.31-3.49-11.93-11.37-11.93-7.42,0-12.93,6.42-12.93,15.75v28.35H275.87V66.36H290v9a22.19,22.19,0,0,1,18.9-10.58c11.92,0,19.57,7.76,19.57,19.35Zm-76.94-26.1V95l-13.5,2.25c-6.08,1-9.34,3.71-9.34,8.21s3.38,6.75,8.33,6.75c8.21,0,14.51-5.4,14.51-16.2Zm3.48,26.1a14.21,14.21,0,0,1-2.7-8.89c-3.93,7-10.68,10.46-18.67,10.46-11,0-18.78-6.86-18.78-17.43,0-11.36,9.33-16.87,19.91-18.45l16.76-2.59V83.12c0-5.4-3.38-8.44-10.24-8.44-6.52,0-10,2.81-10,6.3a3.43,3.43,0,0,0,.22,1.35L218.83,86.6a11.58,11.58,0,0,1-1-4.72c0-8.66,8.55-17.1,23.51-17.1,15.64,0,24.41,6.64,24.41,20.25v23.28c0,6.42,1,9.9,3.71,13.84ZM154.94,43.41h14.85v65h39.48v13.72H154.94ZM111.85,163.72h-60A11.89,11.89,0,0,1,40,151.84V123.73H11.88A11.89,11.89,0,0,1,0,111.85v-100A11.89,11.89,0,0,1,11.88,0h20A11.89,11.89,0,0,1,43.75,11.88V120h68.1a11.89,11.89,0,0,1,11.88,11.88v20A11.89,11.89,0,0,1,111.85,163.72Zm-68.1-40v28.11A8.13,8.13,0,0,0,51.87,160h60a8.13,8.13,0,0,0,8.12-8.12v-20a8.13,8.13,0,0,0-8.12-8.12ZM11.88,3.76a8.13,8.13,0,0,0-8.13,8.12v100A8.13,8.13,0,0,0,11.88,120H40V11.88a8.13,8.13,0,0,0-8.12-8.12Z"/></svg>