<svg width="74" height="42" viewBox="0 0 74 42" fill="none" xmlns="http://www.w3.org/2000/svg">
<path d="M10.9966 34.3533L5.51442 27.6011V34.3533H0V13.0001H5.51442V24.802L10.9643 18.2518H17.7687L10.2871 26.3314L17.8332 34.3533H10.9966Z" fill="white"/>
<path d="M16.0059 26.2737C16.0059 24.6193 16.3499 23.1669 17.0378 21.9165C17.7473 20.6661 18.704 19.7042 19.9079 19.0309C21.1118 18.3576 22.4555 18.021 23.9389 18.021C25.2073 18.021 26.3145 18.2518 27.2605 18.7135C28.2279 19.1752 28.9696 19.7812 29.4856 20.5314V18.2518H35V34.3533H29.4856V32.0737C28.9481 32.8239 28.1957 33.4299 27.2282 33.8916C26.2823 34.3533 25.1751 34.5841 23.9067 34.5841C22.4447 34.5841 21.1118 34.2475 19.9079 33.5742C18.704 32.8817 17.7473 31.9102 17.0378 30.6598C16.3499 29.3901 16.0059 27.9281 16.0059 26.2737ZM29.4856 26.3025C29.4856 25.0714 29.0986 24.0999 28.3246 23.3881C27.5722 22.6763 26.6477 22.3205 25.5513 22.3205C24.4549 22.3205 23.5197 22.6763 22.7457 23.3881C21.9933 24.0807 21.617 25.0425 21.617 26.2737C21.617 27.5049 21.9933 28.486 22.7457 29.217C23.5197 29.9288 24.4549 30.2846 25.5513 30.2846C26.6477 30.2846 27.5722 29.9288 28.3246 29.217C29.0986 28.5052 29.4856 27.5337 29.4856 26.3025Z" fill="white"/>
<path d="M56.3334 18.2518L45.0465 42.0001H39.1129L43.2406 33.805L35.9203 18.2518H42.0797L46.2397 28.3224L50.3675 18.2518H56.3334Z" fill="white"/>
<path d="M64.5836 34.5841C62.8207 34.5841 61.2298 34.2475 59.8109 33.5742C58.4134 32.9009 57.3063 31.939 56.4893 30.6886C55.6938 29.4382 55.2961 27.9762 55.2961 26.3025C55.2961 24.6482 55.7046 23.1957 56.5215 21.9453C57.3385 20.6757 58.4564 19.7042 59.8753 19.0309C61.2943 18.3576 62.8852 18.021 64.6481 18.021C66.411 18.021 68.0019 18.3576 69.4208 19.0309C70.8397 19.7042 71.9576 20.6757 72.7746 21.9453C73.5915 23.1957 74 24.6482 74 26.3025C74 27.9569 73.5808 29.419 72.7423 30.6886C71.9254 31.939 70.7967 32.9009 69.3563 33.5742C67.9374 34.2475 66.3465 34.5841 64.5836 34.5841ZM64.5836 30.3135C65.637 30.3135 66.5292 29.9672 67.2602 29.2747C68.0126 28.5821 68.3888 27.5914 68.3888 26.3025C68.3888 25.0137 68.0234 24.0229 67.2924 23.3304C66.5829 22.6379 65.7015 22.2916 64.6481 22.2916C63.5731 22.2916 62.6809 22.6379 61.9715 23.3304C61.262 24.0037 60.9073 24.9944 60.9073 26.3025C60.9073 27.5914 61.2513 28.5821 61.9392 29.2747C62.6487 29.9672 63.5301 30.3135 64.5836 30.3135Z" fill="white"/>
<path d="M67.9941 12.75C67.9941 14.8211 66.3152 16.5 64.2441 16.5C62.1731 16.5 60.4941 14.8211 60.4941 12.75C60.4941 10.6789 62.1731 9 64.2441 9C66.3152 9 67.9941 10.6789 67.9941 12.75Z" fill="#F86E52"/>
<path d="M41.5 8.47038C41.5 6.77236 41.826 5.28165 42.4779 3.99826C43.1503 2.71487 44.0569 1.72764 45.1978 1.03659C46.3387 0.345529 47.6121 0 49.0178 0C50.2199 0 51.2691 0.236934 52.1655 0.710801C53.0823 1.18467 53.7852 1.80662 54.2742 2.57666V0.236934H59.5V16.7631H54.2742V14.4233C53.7649 15.1934 53.0518 15.8153 52.135 16.2892C51.2385 16.7631 50.1893 17 48.9873 17C47.6019 17 46.3387 16.6545 45.1978 15.9634C44.0569 15.2526 43.1503 14.2555 42.4779 12.9721C41.826 11.669 41.5 10.1684 41.5 8.47038ZM54.2742 8.5C54.2742 7.23635 53.9075 6.23926 53.174 5.50871C52.461 4.77817 51.5849 4.41289 50.5458 4.41289C49.5068 4.41289 48.6205 4.77817 47.8871 5.50871C47.174 6.21951 46.8175 7.20674 46.8175 8.47038C46.8175 9.73403 47.174 10.741 47.8871 11.4913C48.6205 12.2218 49.5068 12.5871 50.5458 12.5871C51.5849 12.5871 52.461 12.2218 53.174 11.4913C53.9075 10.7607 54.2742 9.76365 54.2742 8.5Z" fill="white"/>
<path fill-rule="evenodd" clip-rule="evenodd" d="M39.2657 1.90877C38.1263 0.636257 36.594 0 34.6688 0C33.5884 0 32.616 0.218713 31.7516 0.656139C30.8872 1.07368 30.1997 1.65029 29.6889 2.38596V0.178947H24.65V16.8211H29.6889V7.78421C29.6889 6.67076 29.9738 5.80585 30.5434 5.18947C31.1131 4.5731 31.8793 4.26491 32.8419 4.26491C33.8045 4.26491 34.5706 4.5731 35.1403 5.18947C35.71 5.80585 35.9949 6.67076 35.9949 7.78421V16.8211H41.0043V7.09825C41.0043 4.89123 40.4248 3.1614 39.2657 1.90877Z" fill="white"/>
<path fill-rule="evenodd" clip-rule="evenodd" d="M12 0.174988H7V11.065C7 15.025 10.5 17.005 14.5 17.005H16.5C20.5 17.005 24 15.025 24 11.065V0.174988H19V9.29745C19 11.2304 17.433 12.7975 15.5 12.7975C13.567 12.7975 12 11.2304 12 9.29745V0.174988Z" fill="white"/>
</svg>
